<svg version="1.1" id="Layer_1" xmlns="http://www.w3.org/2000/svg" xmlns:xlink="http://www.w3.org/1999/xlink" x="0px" y="0px" width="32px" height="32px" viewBox="0 0 32 32" enable-background="new 0 0 32 32" xml:space="preserve">
  <g id="main">
    <g id="icon">
      <path d="M18.15,0.2711L18.13,0.6506L18.3,0.9367L19.05,1.646L19.29,1.95L19.48,2.258L19.62,2.562L19.72,2.854L19.82,3.527L19.8,4.266L19.68,5.111L19.33,7.148L19.39,7.524L19.66,7.79L20.04,7.839L20.37,7.651L20.52,7.352L20.87,5.305L20.87,5.282L20.99,4.394L21,4.332L21.02,3.509L21.01,3.404L20.9,2.629L20.88,2.531L20.75,2.156L20.73,2.088L20.55,1.718L20.52,1.654L20.29,1.288L20.25,1.233L19.96,0.8666L19.9,0.8021L19.12,0.06328L18.98,0L18.39,0zz" fill="#58595B"/>
      <path d="M25.6,8.984L25.54,8.989L24.66,9.109L24.64,9.112L22.61,9.467L22.27,9.648L22.11,9.994L22.19,10.37L22.48,10.61L22.81,10.65L24.83,10.3L25.67,10.18L26.4,10.16L27.06,10.26L27.35,10.36L27.65,10.5L27.96,10.69L28.26,10.93L28.96,11.69L29.29,11.88L29.67,11.82L29.94,11.55L29.99,11.17L29.84,10.88L29.11,10.09L29.04,10.03L28.68,9.734L28.63,9.695L28.26,9.465L28.2,9.429L27.83,9.255L27.76,9.228L27.39,9.105L27.29,9.081L26.52,8.966L26.42,8.96zz" fill="#58595B"/>
      <path d="M14.81,3.231L14.56,3.59L14.53,3.724L14.43,4.53L14.33,5.149L14.23,5.536L13.97,6.06L13.97,6.06L13.66,6.644L13.59,6.901L13.52,7.409L13.52,7.531L13.55,8.25L13.55,8.296L13.65,9.217L13.82,9.619L14.19,9.858L14.63,9.853L14.99,9.604L15.15,9.197L15.14,9.059L15.05,8.163L15.02,7.527L15.06,7.214L15.3,6.753L15.31,6.741L15.61,6.132L15.67,5.979L15.79,5.483L15.8,5.423L15.91,4.764L15.91,4.738L16.02,3.916L15.95,3.485L15.65,3.168L15.22,3.072zz" fill="#58595B"/>
      <path d="M25.89,13.93L25.02,14.08L24.98,14.09L23.79,14.38L23.62,14.44L23.02,14.74L23.01,14.75L22.55,14.99L22.25,15.03L21.62,15L20.73,14.91L20.3,14.99L19.99,15.3L19.91,15.72L20.07,16.13L20.44,16.37L20.57,16.4L21.48,16.5L21.53,16.5L22.24,16.53L22.37,16.53L22.87,16.46L23.13,16.38L23.71,16.08L23.71,16.08L24.22,15.82L25.31,15.56L26.16,15.4L26.55,15.2L26.76,14.82L26.72,14.38L26.45,14.04L26.03,13.91zz" fill="#58595B"/>
      <path d="M19.26,17.25L18.93,17.54L18.82,17.96L18.82,17.99L18.9,17.91L19.31,17.63L19.78,17.4L20,17.34L19.69,17.19zz" fill="#58595B"/>
      <path d="M14.84,22.57L14.59,22.93L14.56,23.07L14.28,25.66L13.8,26.42L13.79,26.45L13.37,27.17L13.34,27.23L13.11,27.75L13.04,28.04L13.03,28.43L13.04,28.57L13.11,29.01L13.13,29.08L13.27,29.59L13.5,29.96L13.91,30.13L14.34,30.05L14.65,29.75L14.74,29.32L14.72,29.19L14.59,28.72L14.53,28.39L14.54,28.23L14.69,27.88L15.08,27.21L15.64,26.31L15.75,25.99L16.06,23.23L15.97,22.8L15.67,22.49L15.24,22.4zz" fill="#58595B"/>
      <path d="M4.409,8.73L4.15,9.083L4.132,9.52L4.361,9.892L4.472,9.974L4.983,10.28L5.047,10.32L5.492,10.53L5.637,10.58L6.034,10.67L6.302,10.69L7.818,10.5L7.843,10.5L8.886,10.33L11.68,10.98L12.12,10.95L12.47,10.69L12.6,10.27L12.49,9.849L12.15,9.565L12.02,9.521L9.082,8.839L8.796,8.829L7.622,9.014L6.253,9.184L6.065,9.138L5.725,8.977L5.244,8.688L4.82,8.582zz" fill="#58595B"/>
      <path d="M6.599,13.8L3.862,14.11L3.543,14.22L2.651,14.79L1.984,15.18L1.644,15.34L1.485,15.34L1.165,15.29L0.7035,15.16L0.2664,15.16L-0,15.35L0,16.39L0.1676,16.55L0.2965,16.6L0.7945,16.74L0.8695,16.76L1.302,16.83L1.451,16.84L1.838,16.83L2.129,16.76L2.642,16.53L2.709,16.49L3.421,16.08L3.445,16.06L4.202,15.58L6.767,15.29L7.168,15.12L7.404,14.75L7.396,14.32L7.145,13.96L6.738,13.8zz" fill="#58595B"/>
      <path d="M14.58,8.573L13.32,8.995L10.67,10.03L9.79,10.47L8.949,11L8.158,11.59L7.426,12.25L6.766,12.97L6.185,13.73L5.696,14.55L5.309,15.4L5.032,16.28L4.878,17.18L4.856,18.1L4.977,19.04L5.251,19.97L5.688,20.91L6.298,21.83L7.092,22.74L7.994,23.54L8.914,24.16L9.847,24.61L10.78,24.9L11.72,25.03L12.64,25.02L13.55,24.87L14.43,24.6L15.28,24.21L16.09,23.72L16.85,23.14L17.56,22.47L17.94,22.02L17.89,21.86L17.78,21.32L17.74,20.79L17.77,20.18L17.87,19.62L18.03,19.11L18.26,18.66L18.55,18.26L18.9,17.91L19.31,17.63L19.78,17.4L20.04,17.33L20.31,17.31L20.51,17.34L20.86,16.51L21.28,15.3L21.62,14.08L21.27,13.94L20.9,13.74L20.13,13.17L19.3,12.42L18.42,11.55L17.53,10.64L16.77,9.775L16.18,8.964L15.98,8.58L15.84,8.209zz" fill-rule="evenodd" fill="#797979"/>
      <path d="M18.65,7.123L18.09,7.245L17.6,7.454L17.21,7.743L16.94,8.153L17.93,9.384L19.16,10.73L20.44,11.92L21.63,12.9L21.9,12.77L22.15,12.57L22.44,12.19L22.64,11.71L22.76,11.15L22.77,10.55L22.69,9.925L22.49,9.298L22.17,8.696L21.72,8.143L21.16,7.692L20.55,7.373L19.91,7.178L19.27,7.098zz" fill-rule="evenodd" fill="#217346"/>
    </g>
    <g id="overlay">
      <path d="M21.3242,28.814c0,0.0606,-0.2763,1.4298,-1.5041,2.3263c-0.1417,0.1438,-0.2048,0.1327,-0.3798,0.0258c-1.1647,-0.7666,-1.4155,-2.2184,-1.433,-2.3001c-0.0314,-0.1468,0.0407,-0.2921,0.1926,-0.3566c0.037,-0.0157,0.0776,-0.0094,0.1177,-0.0094h2.6914C21.357,28.5,21.3242,28.5517,21.3242,28.814zM21.8404,18.5276c0.9172,0.8261,1.2753,1.8244,1.2783,1.8393c0.0294,0.1486,0.1529,0.2332,0.296,0.2332h8.2429c0.0372,0,0.0747,0.017,0.1093,0.0025c0.1434,-0.0599,0.2156,-0.1995,0.1925,-0.3445c-0.0186,-0.1158,-0.5681,-2.258,-2.4477,-2.258h-7.4483C21.3382,18,21.3684,18.1025,21.8404,18.5276zM32,28.775c0,2.9086,-2.3282,3.225,-2.4285,3.225c-0.044,0,-6.0297,0,-7.9776,0c-0.2726,0,-1.0482,-0.04,-1.198,-0.1926c-0.0563,-0.0573,0.1642,-0.2075,0.3886,-0.4076c0.0007,-0.0005,0.0015,-0.0006,0.0021,-0.0011c0.2468,-0.2229,1.1384,-1.1148,1.3747,-2.5533c0.1256,-1.1142,-0.9018,-2.5694,-1.7737,-4.0733c-0.8481,-1.4629,-1.6492,-2.8448,-1.6492,-3.9846c0,-1.7396,0.8808,-2.2475,1.4077,-2.4533c0.0994,-0.0388,0.2142,-0.0284,0.2986,0.0375c1.1525,0.9004,1.5997,1.5562,1.9764,2.6372c0.0682,0.1957,0.2268,0.4911,0.4305,0.4911h5.9586c0.1477,0,0.2749,0.1296,0.3118,0.2752c0.2566,1.0109,0.8518,2.4802,1.4274,3.6176C31.2263,26.7301,31.9943,27.8994,32,28.775z" fill="#EAB765"/>
    </g>
  </g>
</svg>