<svg version="1.1" id="Layer_1" xmlns="http://www.w3.org/2000/svg" xmlns:xlink="http://www.w3.org/1999/xlink" x="0px" y="0px" width="16px" height="16px" viewBox="0 0 16 16" enable-background="new 0 0 16 16" xml:space="preserve">
  <g id="main">
    <g id="icon">
      <path d="M7.022,1.617L6.928,1.861L6.876,2.266L6.775,2.77L6.495,3.318L6.439,3.503L6.408,3.766L6.404,3.854L6.42,4.226L6.423,4.26L6.473,4.735L6.625,5.06L6.946,5.222L7.298,5.152L7.532,4.879L7.567,4.619L7.519,4.162L7.505,3.852L7.52,3.73L7.789,3.202L7.838,3.06L7.958,2.464L7.964,2.425L8.019,2.001L7.945,1.649L7.671,1.418L7.312,1.405zz" fill="#58595B"/>
      <path d="M12.86,7L13.12,7L12.92,6.988zz" fill="#58595B"/>
      <path d="M8.867,0.1514L8.709,0.4211L8.764,0.7287L8.85,0.834L9.232,1.179L9.457,1.459L9.578,1.704L9.632,1.955L9.637,2.254L9.595,2.627L9.43,3.63L9.49,3.937L9.735,4.131L10.05,4.118L10.28,3.905L10.32,3.776L10.48,2.763L10.49,2.74L10.53,2.326L10.54,2.27L10.53,1.897L10.52,1.807L10.45,1.459L10.41,1.356L10.24,1.017L10.19,0.9338L9.912,0.5875L9.862,0.5352L9.454,0.166L9.163,0.0502zz" fill="#58595B"/>
      <path d="M12.71,4.458L12.66,4.463L12.25,4.525L12.23,4.527L11.23,4.71L10.96,4.87L10.86,5.166L10.98,5.456L11.26,5.6L11.39,5.596L12.39,5.414L12.77,5.356L13.06,5.347L13.3,5.388L13.54,5.495L13.81,5.707L14.15,6.086L14.42,6.232L14.73,6.163L14.92,5.911L14.89,5.599L14.82,5.486L14.45,5.078L14.4,5.024L14.05,4.754L13.96,4.699L13.63,4.545L13.51,4.511L13.17,4.452L13.08,4.446zz" fill="#58595B"/>
      <path d="M7.039,11.31L6.945,11.56L6.805,12.66L6.588,12.98L6.561,13.02L6.227,13.61L6.156,13.87L6.151,14.07L6.158,14.18L6.197,14.4L6.209,14.45L6.281,14.71L6.485,15.01L6.828,15.12L7.163,14.99L7.187,14.95L7.1,14.71L7.025,14.41L7.011,14.01L7.135,13.63L7.378,13.31L7.723,13.08L7.83,13.06L7.88,12.94L8.037,11.7L7.98,11.43L7.923,11.31L7.688,11.11L7.329,11.1zz" fill="#58595B"/>
      <path d="M1.706,4.391L1.551,4.715L1.628,5.065L1.814,5.25L2.078,5.408L2.125,5.433L2.354,5.542L2.461,5.58L2.665,5.629L2.871,5.64L4.165,5.46L5.583,5.789L5.94,5.751L6.198,5.501L6.246,5.146L6.065,4.836L5.831,4.717L4.314,4.365L4.114,4.356L2.823,4.536L2.776,4.524L2.621,4.451L2.38,4.306L2.029,4.232zz" fill="#58595B"/>
      <path d="M1.939,7.081L1.665,7.192L1.366,7.421L1.025,7.622L1.023,7.622L0.8826,7.598L0.6527,7.533L0.2941,7.553L0.02461,7.79L-0,7.923L0,8.222L0.1254,8.462L0.3533,8.591L0.6107,8.664L0.6662,8.677L0.8896,8.716L1,8.724L1.199,8.718L1.463,8.642L1.954,8.352L2.009,8.314L2.213,8.158L3.474,8.017L3.798,7.862L3.958,7.541L3.886,7.189L3.612,6.957L3.352,6.923zz" fill="#58595B"/>
      <path d="M6.372,4.698L5.097,5.136L4.208,5.637L3.422,6.284L2.781,7.051L2.529,7.47L2.329,7.909L2.186,8.363L2.107,8.83L2.096,9.307L2.158,9.788L2.3,10.27L2.525,10.75L2.841,11.23L3.251,11.7L3.716,12.11L4.192,12.43L4.673,12.67L5.157,12.81L5.639,12.88L6.115,12.87L6.583,12.8L7.038,12.66L7.476,12.46L7.894,12.21L8.251,11.93L8.097,11.66L7.753,10.97L7.513,10.28L7.422,9.593L7.446,9.18L7.516,8.798L7.633,8.449L7.794,8.134L7.998,7.856L8.246,7.617L8.534,7.417L8.863,7.26L9.294,7.178L9.481,7.193L9.722,7.081L9.912,7.036L9.792,6.947L8.91,6.109L8.057,5.194L7.755,4.776L7.578,4.386zz" fill-rule="evenodd" fill="#797979"/>
      <path d="M9.218,3.637L8.925,3.7L8.672,3.808L8.474,3.957L8.331,4.169L8.846,4.804L9.477,5.497L10.14,6.113L10.75,6.62L11.02,6.448L11.17,6.251L11.28,6.003L11.33,5.717L11.34,5.406L11.3,5.083L11.2,4.759L11.03,4.448L10.8,4.163L10.51,3.93L10.2,3.766L9.869,3.665L9.537,3.624zz" fill-rule="evenodd" fill="#217346"/>
    </g>
    <g id="overlay">
      <path d="M9.8995,14.1794c0,0.0346,-0.1579,0.817,-0.8595,1.3293c-0.081,0.0822,-0.117,0.0758,-0.217,0.0148c-0.6655,-0.438,-0.8089,-1.2676,-0.8189,-1.3144c-0.018,-0.0839,0.0232,-0.1669,0.1101,-0.2038c0.0212,-0.009,0.0443,-0.0054,0.0673,-0.0054h1.5379C9.9183,14,9.8995,14.0295,9.8995,14.1794zM10.1945,8.3015c0.5241,0.472,0.7288,1.0497,0.7305,1.0581c0.0168,0.0849,0.0874,0.1404,0.1692,0.1404h4.7102c0.0212,0,0.0427,0.0026,0.0625,-0.0057c0.0819,-0.0342,0.1232,-0.1176,0.11,-0.2004C15.9662,9.2277,15.6522,8,14.5781,8h-4.2562C9.9075,8,9.9248,8.0586,10.1945,8.3015zM16,14.1571C16,15.8192,14.6696,16,14.6123,16c-0.0251,0,-3.4455,0,-4.5586,0c-0.1558,0,-0.5989,-0.0229,-0.6846,-0.1101c-0.0322,-0.0328,0.0938,-0.1186,0.2221,-0.2329c0.0004,-0.0003,0.0008,-0.0003,0.0012,-0.0006c0.141,-0.1274,0.6505,-0.637,0.7856,-1.459c0.0718,-0.6367,-0.5153,-1.4682,-1.0135,-2.3276c-0.4846,-0.836,-0.9424,-1.6256,-0.9424,-2.2769c0,-0.9941,0.5033,-1.2843,0.8044,-1.4019c0.0568,-0.0222,0.1224,-0.0163,0.1706,0.0214c0.6586,0.5145,0.9141,0.8893,1.1294,1.507c0.039,0.1118,0.1296,0.2806,0.246,0.2806h3.4049c0.0844,0,0.1571,0.0741,0.1782,0.1573c0.1467,0.5777,0.4867,1.4173,0.8156,2.0672C15.5579,12.9886,15.9967,13.6568,16,14.1571z" fill="#EAB765"/>
    </g>
  </g>
</svg>